<?xml version="1.0" encoding="utf-8"?>
<!-- Generator: Adobe Illustrator 16.0.3, SVG Export Plug-In . SVG Version: 6.00 Build 0)  -->
<!DOCTYPE svg PUBLIC "-//W3C//DTD SVG 1.1//EN" "http://www.w3.org/Graphics/SVG/1.1/DTD/svg11.dtd">
<svg version="1.1" id="Layer_1" xmlns="http://www.w3.org/2000/svg" xmlns:xlink="http://www.w3.org/1999/xlink" x="0px" y="0px"
	 width="599.877px" height="164.021px" viewBox="0 0 599.877 164.021" enable-background="new 0 0 599.877 164.021"
	 xml:space="preserve">
<g>
	<g>
		<g>
			<path fill="#F1F0F0" d="M22.447,0C6.188,0,0,8.645,0,23.267v87.885c1.354-1.537,2.821-2.954,4.762-3.893
				c0.911-1.649,2.63-2.599,3.994-3.792c0.182-0.182,0.587-0.02,0.759-0.203c0.171-0.162,0.02-0.566,0.19-0.749
				c1.003-1.131,2.427-1.657,3.418-2.668c1.396-1.417,2.832-3.6,4.369-5.521c1.8-2.224,4.317-4.585,4.955-7.599
				c6.986-9.939,12.446-21.39,22.81-27.951c2.589,0.9,5.369,1.602,7.988,2.476c1.204,3.332,0.92,6.164,1.9,9.125
				c0.916,2.781,3.039,4.959,3.807,7.796c0.404,1.512,0.183,3.185,0.951,4.758c0.83-0.082,1.173-1.006,1.517-1.533
				c1.354-2.072,2.001-4.473,3.034-6.647c1.375-2.821,3.195-5.258,5.136-7.801c3.762-4.894,7.806-9.398,11.79-14.07
				c1.983-2.315,3.621-4.99,5.521-7.412c1.901-2.441,3.863-4.813,5.703-7.224c3.721-4.919,7.805-9.343,12.173-13.69v-0.192h5.5
				c0.263,1.143,2.366,0.424,3.236,0.95c4.51,8.039,9.585,15.972,14.257,23.772c1.597,2.658,3.66,5.096,4.954,7.795
				c1.052,2.209,1.638,4.469,2.852,6.465c1.193,1.953,2.527,3.737,3.801,5.703c2.468,3.786,4.955,7.543,7.422,11.405
				c6.127,9.617,11.891,19.778,18.443,28.514c1.354,1.82,2.507,3.853,3.781,5.711c3.115,4.52,6.33,8.888,9.606,13.146V81.977V0
				H22.447z"/>
			<path fill="#F1F0F0" d="M178.629,163.953v-27.732c-0.162-0.111-0.324-0.192-0.466-0.293c-1.132-0.829-2.122-2.223-3.417-3.438
				c-1.253-1.173-2.872-2.123-3.801-3.227c-0.951-1.082-1.72-2.314-2.669-3.427c-0.972-1.133-1.86-2.325-2.852-3.417
				c-1.962-2.164-4.186-4.023-6.087-6.27c-10.799-12.791-19.151-28.604-28.715-42.401c-0.465-0.688-0.992-1.244-1.314-1.9
				c-0.526-1.002-0.486-2.18-0.971-3.236c-0.728-1.658-2.224-2.938-3.033-4.56c-0.384-0.789-0.547-1.665-0.931-2.473
				c-0.749-1.426-1.8-2.765-2.689-4.181c-2.73-4.398-5.157-8.985-8.17-12.933c-0.02-0.545,0.102-1.237-0.182-1.521
				c-1.416-1.436-2.164-3.544-3.802-4.752c-9.201,7.962-17.229,17.7-25.48,28.327c-6.552,8.428-13.508,18.21-19.211,27.759
				c-0.788,1.331-1.8,3.974-2.649,4.177c-0.525,0.142-1.577-0.324-2.467-0.566c-2.568-0.651-5.313-1.294-7.042-2.087
				c-1.214-7.786-5.137-12.857-7.422-19.576c-2.811,2.866-5.55,5.951-7.988,8.928c-0.839,1.021-1.546,2.316-2.851,2.852
				c-0.081-1.167,1.022-1.137,0.96-2.281c-1.193,0.3-1.992,0.688-2.466,1.714c-0.547,1.113-0.102,2.401-0.971,3.231
				c-0.557,0.531-1.102,0.278-1.709,0.576c-0.526,0.252-0.718,1.02-1.527,0.946c-0.485,2.937-2.679,3.828-4.175,5.879
				c-0.334,0.465-0.416,1.213-0.759,1.72c-0.375,0.596-0.799,1.01-1.133,1.536c-0.718,1.103-1.254,2.487-1.911,3.227
				c-0.586,0.646-1.486,0.769-2.093,1.324c-0.879,0.829-1.012,1.981-1.891,2.669c-0.789,0.142-0.374-0.91-1.144-0.768
				c-1.041,1.576-2.355,2.86-4.195,3.619c-2.002,1.91-3.701,4.166-5.703,6.087c-1.699,1.649-3.7,2.872-5.702,4.176v42.292H178.629z"
				/>
		</g>
	</g>
	<g>
		<path fill="#F1F0F0" d="M200.327,0.023h33.578v8.625h-14.328v39.854h-9.911V8.647h-14.33V5.227
			C195.336,2.446,197.547,0.023,200.327,0.023z"/>
		<path fill="#F1F0F0" d="M243.465,0.023h5.061v18.108h19.892V0.023h10.052v48.479h-10.052v-21.46h-19.892v21.46h-10.051V5.227
			C238.476,2.446,240.685,0.023,243.465,0.023z"/>
		<path fill="#F1F0F0" d="M283.324,5.227c0-3.351,1.642-5.132,4.992-5.204H318.4v8.412h-25.308v10.409h18.893v3.208
			c0.072,3.351-1.64,4.99-5.134,4.99h-13.759V39.59H318.4v8.912h-35.076V5.227z"/>
	</g>
	<g>
		<path fill="#F1F0F0" d="M200.327,56.804h5.063v18.108h19.891V56.804h10.051v48.478H225.28V83.824h-19.891v21.458h-10.053V62.008
			C195.336,59.229,197.547,56.804,200.327,56.804z"/>
		<path fill="#F1F0F0" d="M240.188,62.008c0-3.351,1.639-5.132,4.99-5.204h30.085v8.412h-25.308v10.41h18.891v3.207
			c0.071,3.351-1.64,4.991-5.132,4.991h-13.759v12.548h25.308v8.91h-35.075V62.008z"/>
		<path fill="#F1F0F0" d="M280.116,62.008c0-3.422,1.639-5.204,4.991-5.204h4.919v48.478h-9.91V62.008z"/>
		<path fill="#F1F0F0" d="M317.12,56.021c5.633,0,10.553,1.425,14.615,4.277c3.71,2.996,5.773,7.201,6.133,12.69h-6.133
			c-1.784,0-3.208-0.854-4.35-2.495c-1.926-3.922-5.275-5.846-9.979-5.846c-8.344,0-12.62,5.275-12.692,15.897
			c-0.069,10.623,4.277,16.327,13.191,16.967c6.7,0,10.621-4.491,11.69-10.335h-5.848c-2.779,0-4.988-2.213-4.988-4.993v-3.065
			h19.748v26.164h-2.495c-2.354,0-4.634-1.568-4.846-3.778l-0.432-2.352c-3.421,4.42-6.915,6.846-13.9,6.846
			c-13.901,0-22.315-10.768-22.315-24.955C294.308,66.713,302.792,55.45,317.12,56.021z"/>
		<path fill="#F1F0F0" d="M348.211,56.804h5.063v18.108h19.89V56.804h10.051v48.478h-10.051V83.824h-19.89v21.458h-10.055V62.008
			C343.219,59.229,345.431,56.804,348.211,56.804z"/>
		<path fill="#F1F0F0" d="M392.777,56.804h33.577v8.626h-14.329v39.852h-9.91V65.43h-14.33v-3.422
			C387.785,59.229,389.996,56.804,392.777,56.804z"/>
		<path fill="#F1F0F0" d="M460.583,91.809c0-2.354-1.426-3.922-4.419-4.777c-2.853-0.854-6.135-1.71-9.627-2.637
			c-9.48-2.424-14.187-6.845-14.187-13.262c0.215-10.194,6.273-15.185,18.251-15.112c11.406,0,17.324,4.99,17.896,15.041h-5.562
			c-2.068,0-3.492-0.998-4.422-2.852c-1.641-2.78-4.563-4.134-8.77-4.134c-5.132,0.071-7.698,1.997-7.913,5.703
			c0,3.065,3.066,5.276,9.41,6.702c3.638,0.855,7.487,1.926,11.549,3.351c5.419,1.854,7.986,5.846,7.698,11.977
			c-0.567,9.482-6.983,14.189-19.247,14.189c-12.831,0-19.318-5.35-19.604-15.901h9.624c0.358,5.133,3.637,7.7,9.98,7.7
			C457.591,97.797,460.654,95.801,460.583,91.809z"/>
	</g>
	<g>
		<path fill="#F1F0F0" d="M218.665,141.845H205.01v21.463h-9.693v-43.277c0-2.78,2.194-5.205,4.952-5.205h29.857v8.412H205.01
			v10.411h18.821v3.208C223.831,139.639,221.423,141.845,218.665,141.845z"/>
		<path fill="#F1F0F0" d="M234.647,120.031c0-3.35,1.629-5.132,4.954-5.205h29.854v8.412H244.34v10.411h18.75v3.208
			c0.069,3.349-1.628,4.988-5.096,4.988H244.34v12.548h25.115v8.915h-34.808V120.031z"/>
		<path fill="#F1F0F0" d="M279.214,114.826h4.882v39.567h23.489v8.915h-33.325v-43.277
			C274.261,117.25,276.455,114.826,279.214,114.826z"/>
		<path fill="#F1F0F0" d="M316.633,114.826h4.882v39.567h23.489v8.915h-33.323v-43.277
			C311.681,117.25,313.873,114.826,316.633,114.826z"/>
		<path fill="#F1F0F0" d="M348.679,139.067c0-14.829,8.701-25.025,22.992-25.025c14.362,0,23.063,10.338,23.063,25.025
			c0,14.899-8.419,24.953-23.063,24.953C357.023,164.021,348.679,153.896,348.679,139.067z M358.512,139.067
			c0,9.48,4.174,16.612,13.159,16.612s13.231-6.847,13.231-16.612c0-9.554-4.246-16.397-13.231-16.397
			S358.512,129.655,358.512,139.067z"/>
		<path fill="#F1F0F0" d="M457.203,114.826l-13.657,48.481h-9.408l-7.431-37.146l-7.498,37.146h-9.48l-13.728-48.481h10.259
			l8.139,34.149l7.073-34.149h10.472l6.934,34.149l7.286-30.371c0.849-2.494,2.475-3.778,4.95-3.778H457.203z"/>
		<path fill="#F1F0F0" d="M489.526,149.832c0-2.354-1.417-3.923-4.39-4.776c-2.828-0.857-6.083-1.713-9.549-2.639
			c-9.411-2.424-14.078-6.846-14.078-13.261c0.21-10.194,6.225-15.187,18.109-15.114c11.32,0,17.192,4.992,17.758,15.042h-5.52
			c-2.051,0-3.464-0.998-4.386-2.851c-1.626-2.78-4.527-4.134-8.699-4.134c-5.096,0.071-7.644,1.997-7.856,5.703
			c0,3.065,3.045,5.276,9.34,6.702c3.608,0.856,7.429,1.924,11.462,3.352c5.378,1.853,7.924,5.846,7.64,11.977
			c-0.563,9.481-6.933,14.188-19.102,14.188c-12.732,0-19.174-5.347-19.456-15.901h9.551c0.355,5.136,3.61,7.701,9.905,7.701
			C486.553,155.821,489.595,153.823,489.526,149.832z"/>
		<path fill="#F1F0F0" d="M509.114,114.826h5.024v18.11h19.736v-18.11h9.977v48.481h-9.977v-21.463h-19.736v21.463h-9.98v-43.277
			C504.158,117.25,506.354,114.826,509.114,114.826z"/>
		<path fill="#F1F0F0" d="M548.375,120.031c0-3.421,1.629-5.205,4.953-5.205h4.881v48.481h-9.834V120.031z"/>
		<path fill="#F1F0F0" d="M585.09,146.052h-12.168v17.255h-9.834v-43.277c0-2.78,2.193-5.205,4.951-5.205h16.345
			c10.188,0,15.493,5.492,15.493,15.614C599.877,139.993,594.712,146.052,585.09,146.052z M582.614,137.285
			c4.953,0.07,7.428-2.282,7.428-6.987c0-4.706-2.336-7.06-6.933-7.06h-10.046v14.047H582.614z"/>
	</g>
</g>
</svg>
