<?xml version="1.0" encoding="utf-8"?>
<!-- Generator: Adobe Illustrator 16.0.3, SVG Export Plug-In . SVG Version: 6.00 Build 0)  -->
<!DOCTYPE svg PUBLIC "-//W3C//DTD SVG 1.1//EN" "http://www.w3.org/Graphics/SVG/1.1/DTD/svg11.dtd">
<svg version="1.1" id="Layer_1" xmlns="http://www.w3.org/2000/svg" xmlns:xlink="http://www.w3.org/1999/xlink" x="0px" y="0px"
	 width="202.832px" height="186.167px" viewBox="0 0 202.832 186.167" enable-background="new 0 0 202.832 186.167"
	 xml:space="preserve">
<g>
	<g>
		<path fill="#F1F0F0" d="M25.488,0C7.026,0,0,9.816,0,26.419v99.794c1.538-1.745,3.203-3.354,5.407-4.42
			c1.034-1.872,2.985-2.951,4.535-4.306c0.207-0.207,0.667-0.023,0.861-0.23c0.195-0.184,0.022-0.643,0.217-0.85
			c1.138-1.286,2.756-1.882,3.881-3.031c1.585-1.608,3.215-4.087,4.96-6.269c2.044-2.526,4.903-5.207,5.626-8.628
			c7.933-11.286,14.133-24.289,25.901-31.739c2.938,1.021,6.096,1.819,9.07,2.812c1.367,3.784,1.045,6.999,2.158,10.363
			c1.039,3.158,3.451,5.631,4.323,8.851c0.459,1.717,0.207,3.617,1.08,5.403c0.941-0.092,1.332-1.142,1.722-1.74
			c1.539-2.353,2.273-5.08,3.445-7.548c1.561-3.204,3.628-5.971,5.832-8.858c4.271-5.557,8.864-10.671,13.387-15.976
			c2.251-2.629,4.111-5.666,6.269-8.416c2.158-2.772,4.386-5.465,6.475-8.203c4.226-5.585,8.864-10.609,13.823-15.545v-0.218h6.246
			c0.299,1.297,2.687,0.481,3.674,1.079c5.121,9.128,10.884,18.135,16.188,26.993c1.814,3.019,4.156,5.786,5.626,8.852
			c1.193,2.508,1.859,5.074,3.238,7.342c1.354,2.217,2.87,4.242,4.317,6.475c2.801,4.299,5.625,8.565,8.427,12.951
			c6.958,10.919,13.501,22.457,20.941,32.376c1.538,2.067,2.847,4.375,4.294,6.486c3.536,5.133,7.187,10.093,10.907,14.927V93.084V0
			H25.488z"/>
		<path fill="#F1F0F0" d="M202.832,186.167v-31.489c-0.184-0.126-0.367-0.219-0.528-0.332c-1.286-0.941-2.411-2.525-3.881-3.904
			c-1.423-1.331-3.261-2.41-4.316-3.663c-1.08-1.229-1.953-2.628-3.032-3.891c-1.103-1.287-2.112-2.641-3.237-3.881
			c-2.228-2.457-4.753-4.568-6.912-7.119c-12.263-14.523-21.746-32.479-32.607-48.146c-0.528-0.782-1.125-1.412-1.492-2.158
			c-0.597-1.137-0.551-2.475-1.102-3.675c-0.827-1.882-2.526-3.334-3.445-5.177c-0.436-0.896-0.62-1.89-1.056-2.808
			c-0.85-1.619-2.043-3.14-3.053-4.747c-3.101-4.994-5.856-10.202-9.277-14.686c-0.023-0.619,0.115-1.405-0.207-1.727
			c-1.607-1.63-2.457-4.024-4.316-5.396c-10.448,9.042-19.564,20.099-28.933,32.165c-7.44,9.569-15.339,20.677-21.814,31.521
			c-0.896,1.511-2.044,4.513-3.008,4.742c-0.597,0.162-1.791-0.367-2.802-0.643c-2.916-0.74-6.033-1.469-7.996-2.371
			c-1.378-8.839-5.833-14.598-8.427-22.227c-3.192,3.254-6.303,6.757-9.071,10.138c-0.953,1.159-1.756,2.63-3.237,3.237
			c-0.092-1.326,1.16-1.291,1.09-2.588c-1.354,0.339-2.261,0.781-2.801,1.946c-0.621,1.264-0.115,2.727-1.102,3.669
			c-0.632,0.603-1.252,0.316-1.94,0.654c-0.598,0.288-0.815,1.159-1.734,1.074c-0.551,3.335-3.042,4.346-4.741,6.675
			c-0.379,0.529-0.471,1.378-0.862,1.953c-0.425,0.677-0.907,1.147-1.286,1.744c-0.815,1.252-1.424,2.824-2.17,3.663
			c-0.666,0.734-1.688,0.873-2.376,1.505c-0.999,0.941-1.148,2.25-2.147,3.031c-0.896,0.16-0.424-1.034-1.298-0.873
			c-1.183,1.79-2.674,3.249-4.765,4.11c-2.273,2.169-4.202,4.729-6.476,6.911c-1.928,1.872-4.201,3.261-6.475,4.742v48.021H202.832z
			"/>
	</g>
</g>
<g>
	<path fill="#414042" d="M227.47,0.026h38.128V9.82h-16.271v45.253h-11.252V9.82h-16.271V5.935
		C221.803,2.778,224.313,0.026,227.47,0.026z"/>
	<path fill="#414042" d="M276.454,0.026h5.747v20.562h22.586V0.026h11.414v55.047h-11.414V30.706h-22.586v24.367h-11.413V5.935
		C270.788,2.778,273.297,0.026,276.454,0.026z"/>
	<path fill="#414042" d="M321.713,5.935c0-3.805,1.865-5.828,5.668-5.909h34.162v9.552h-28.738v11.819h21.454v3.643
		c0.08,3.804-1.863,5.666-5.83,5.666h-15.624v14.248h28.738v10.119h-39.83V5.935z"/>
</g>
<g>
	<path fill="#414042" d="M227.47,64.501h5.749v20.561h22.586V64.501h11.413v55.046h-11.413V95.182h-22.586v24.366h-11.415V70.411
		C221.803,67.254,224.313,64.501,227.47,64.501z"/>
	<path fill="#414042" d="M272.731,70.411c0-3.805,1.861-5.829,5.667-5.909h34.162v9.551h-28.738v11.82h21.451v3.641
		c0.081,3.805-1.861,5.667-5.827,5.667h-15.624v14.248h28.738v10.118h-39.829V70.411z"/>
	<path fill="#414042" d="M318.07,70.411c0-3.887,1.862-5.909,5.668-5.909h5.585v55.046H318.07V70.411z"/>
	<path fill="#414042" d="M360.089,63.611c6.395,0,11.98,1.618,16.594,4.856c4.212,3.401,6.558,8.177,6.964,14.409h-6.964
		c-2.024,0-3.643-0.97-4.938-2.833c-2.187-4.454-5.99-6.638-11.331-6.638c-9.474,0-14.33,5.989-14.411,18.051
		c-0.081,12.062,4.856,18.54,14.977,19.267c7.609,0,12.061-5.1,13.276-11.737h-6.641c-3.155,0-5.664-2.511-5.664-5.667v-3.481
		h22.424v29.709h-2.835c-2.671,0-5.261-1.781-5.502-4.291l-0.488-2.671c-3.886,5.019-7.853,7.773-15.784,7.773
		c-15.786,0-25.338-12.226-25.338-28.335C334.184,75.752,343.817,62.963,360.089,63.611z"/>
	<path fill="#414042" d="M395.392,64.501h5.747v20.561h22.587V64.501h11.412v55.046h-11.412V95.182h-22.587v24.366h-11.415V70.411
		C389.724,67.254,392.234,64.501,395.392,64.501z"/>
	<path fill="#414042" d="M445.995,64.501h38.129v9.794h-16.272v45.252H456.6V74.295h-16.272v-3.885
		C440.327,67.254,442.838,64.501,445.995,64.501z"/>
	<path fill="#414042" d="M522.989,104.249c0-2.673-1.619-4.454-5.019-5.425c-3.238-0.97-6.963-1.943-10.93-2.995
		c-10.766-2.752-16.109-7.772-16.109-15.058c0.243-11.576,7.123-17.242,20.725-17.16c12.951,0,19.67,5.666,20.319,17.079h-6.314
		c-2.348,0-3.966-1.133-5.02-3.238c-1.863-3.157-5.181-4.694-9.958-4.694c-5.829,0.081-8.743,2.267-8.986,6.476
		c0,3.481,3.482,5.992,10.686,7.61c4.13,0.971,8.501,2.186,13.114,3.805c6.153,2.105,9.068,6.638,8.743,13.6
		c-0.645,10.767-7.932,16.111-21.857,16.111c-14.571,0-21.937-6.074-22.261-18.054h10.929c0.405,5.829,4.129,8.742,11.332,8.742
		C519.591,111.048,523.071,108.781,522.989,104.249z"/>
</g>
<g>
	<path fill="#414042" d="M248.292,161.064h-15.505v24.37h-11.006v-49.141c0-3.157,2.491-5.909,5.623-5.909h33.902v9.552h-28.52
		v11.821h21.371v3.643C254.158,158.559,251.426,161.064,248.292,161.064z"/>
	<path fill="#414042" d="M266.44,136.294c0-3.803,1.849-5.827,5.624-5.909h33.9v9.552h-28.518v11.821h21.289v3.643
		c0.079,3.803-1.848,5.664-5.786,5.664h-15.503v14.248h28.518v10.122H266.44V136.294z"/>
	<path fill="#414042" d="M317.046,130.385h5.543v44.928h26.672v10.122h-37.84v-49.141
		C311.422,133.137,313.913,130.385,317.046,130.385z"/>
	<path fill="#414042" d="M359.535,130.385h5.543v44.928h26.672v10.122h-37.837v-49.141
		C353.913,133.137,356.402,130.385,359.535,130.385z"/>
	<path fill="#414042" d="M395.924,157.91c0-16.838,9.879-28.416,26.106-28.416c16.309,0,26.189,11.739,26.189,28.416
		c0,16.918-9.562,28.334-26.189,28.334C405.399,186.244,395.924,174.748,395.924,157.91z M407.089,157.91
		c0,10.765,4.738,18.862,14.941,18.862s15.024-7.773,15.024-18.862c0-10.849-4.821-18.619-15.024-18.619
		S407.089,147.223,407.089,157.91z"/>
	<path fill="#414042" d="M519.149,130.385l-15.506,55.05H492.96l-8.438-42.179l-8.514,42.179h-10.765l-15.587-55.05h11.649
		l9.239,38.776l8.033-38.776h11.89l7.873,38.776l8.273-34.486c0.965-2.832,2.813-4.29,5.623-4.29H519.149z"/>
	<path fill="#414042" d="M555.853,170.133c0-2.672-1.609-4.454-4.981-5.423c-3.213-0.974-6.909-1.945-10.845-2.996
		c-10.685-2.752-15.986-7.773-15.986-15.058c0.24-11.576,7.068-17.244,20.564-17.162c12.854,0,19.521,5.668,20.164,17.08h-6.267
		c-2.331,0-3.935-1.132-4.981-3.237c-1.845-3.157-5.14-4.694-9.879-4.694c-5.785,0.081-8.677,2.267-8.919,6.476
		c0,3.48,3.457,5.991,10.605,7.609c4.098,0.973,8.435,2.186,13.016,3.807c6.104,2.104,8.996,6.638,8.674,13.599
		c-0.641,10.767-7.872,16.111-21.689,16.111c-14.459,0-21.772-6.071-22.092-18.055h10.844c0.403,5.831,4.1,8.744,11.248,8.744
		C552.478,176.934,555.934,174.665,555.853,170.133z"/>
	<path fill="#414042" d="M578.096,130.385h5.705v20.563h22.411v-20.563h11.328v55.05h-11.328v-24.37h-22.411v24.37h-11.33v-49.141
		C572.471,133.137,574.963,130.385,578.096,130.385z"/>
	<path fill="#414042" d="M622.677,136.294c0-3.884,1.849-5.909,5.624-5.909h5.542v55.05h-11.166V136.294z"/>
	<path fill="#414042" d="M664.367,165.842h-13.819v19.593h-11.166v-49.141c0-3.157,2.49-5.909,5.624-5.909h18.559
		c11.567,0,17.593,6.235,17.593,17.729C681.157,158.962,675.293,165.842,664.367,165.842z M661.555,155.886
		c5.624,0.08,8.434-2.59,8.434-7.933c0-5.344-2.651-8.017-7.871-8.017h-11.406v15.949H661.555z"/>
</g>
</svg>
