<?xml version="1.0" encoding="utf-8"?>
<!-- Generator: Adobe Illustrator 22.0.1, SVG Export Plug-In . SVG Version: 6.00 Build 0)  -->
<svg version="1.1" id="Layer_1" xmlns="http://www.w3.org/2000/svg" xmlns:xlink="http://www.w3.org/1999/xlink" x="0px" y="0px"
	 width="599.9px" height="164px" viewBox="0 0 599.9 164" style="enable-background:new 0 0 599.9 164;" xml:space="preserve">
<style type="text/css">
	.st0{fill:#33ADE3;}
</style>
<g>
	<g>
		<g>
			<path class="st0" d="M22.4,0C6.2,0,0,8.6,0,23.3v87.9c1.4-1.5,2.8-3,4.8-3.9c0.9-1.6,2.6-2.6,4-3.8c0.2-0.2,0.6,0,0.8-0.2
				c0.2-0.2,0-0.6,0.2-0.7c1-1.1,2.4-1.7,3.4-2.7c1.4-1.4,2.8-3.6,4.4-5.5c1.8-2.2,4.3-4.6,5-7.6c7-9.9,12.4-21.4,22.8-28
				c2.6,0.9,5.4,1.6,8,2.5c1.2,3.3,0.9,6.2,1.9,9.1c0.9,2.8,3,5,3.8,7.8c0.4,1.5,0.2,3.2,1,4.8c0.8-0.1,1.2-1,1.5-1.5
				c1.4-2.1,2-4.5,3-6.6c1.4-2.8,3.2-5.3,5.1-7.8c3.8-4.9,7.8-9.4,11.8-14.1c2-2.3,3.6-5,5.5-7.4c1.9-2.4,3.9-4.8,5.7-7.2
				c3.7-4.9,7.8-9.3,12.2-13.7v-0.2h5.5c0.3,1.1,2.4,0.4,3.2,1c4.5,8,9.6,16,14.3,23.8c1.6,2.7,3.7,5.1,5,7.8
				c1.1,2.2,1.6,4.5,2.9,6.5c1.2,2,2.5,3.7,3.8,5.7c2.5,3.8,5,7.5,7.4,11.4c6.1,9.6,11.9,19.8,18.4,28.5c1.4,1.8,2.5,3.9,3.8,5.7
				c3.1,4.5,6.3,8.9,9.6,13.1V82V0H22.4z"/>
			<path class="st0" d="M178.6,164v-27.7c-0.2-0.1-0.3-0.2-0.5-0.3c-1.1-0.8-2.1-2.2-3.4-3.4c-1.3-1.2-2.9-2.1-3.8-3.2
				c-1-1.1-1.7-2.3-2.7-3.4c-1-1.1-1.9-2.3-2.9-3.4c-2-2.2-4.2-4-6.1-6.3c-10.8-12.8-19.2-28.6-28.7-42.4c-0.5-0.7-1-1.2-1.3-1.9
				c-0.5-1-0.5-2.2-1-3.2c-0.7-1.7-2.2-2.9-3-4.6c-0.4-0.8-0.5-1.7-0.9-2.5c-0.7-1.4-1.8-2.8-2.7-4.2c-2.7-4.4-5.2-9-8.2-12.9
				c0-0.5,0.1-1.2-0.2-1.5c-1.4-1.4-2.2-3.5-3.8-4.8c-9.2,8-17.2,17.7-25.5,28.3c-6.6,8.4-13.5,18.2-19.2,27.8
				c-0.8,1.3-1.8,4-2.6,4.2c-0.5,0.1-1.6-0.3-2.5-0.6c-2.6-0.7-5.3-1.3-7-2.1c-1.2-7.8-5.1-12.9-7.4-19.6c-2.8,2.9-5.5,6-8,8.9
				c-0.8,1-1.5,2.3-2.9,2.9c-0.1-1.2,1-1.1,1-2.3c-1.2,0.3-2,0.7-2.5,1.7c-0.5,1.1-0.1,2.4-1,3.2c-0.6,0.5-1.1,0.3-1.7,0.6
				c-0.5,0.3-0.7,1-1.5,0.9c-0.5,2.9-2.7,3.8-4.2,5.9c-0.3,0.5-0.4,1.2-0.8,1.7c-0.4,0.6-0.8,1-1.1,1.5c-0.7,1.1-1.3,2.5-1.9,3.2
				c-0.6,0.6-1.5,0.8-2.1,1.3c-0.9,0.8-1,2-1.9,2.7c-0.8,0.1-0.4-0.9-1.1-0.8c-1,1.6-2.4,2.9-4.2,3.6c-2,1.9-3.7,4.2-5.7,6.1
				C4,119.1,2,120.4,0,121.7V164H178.6z"/>
		</g>
	</g>
	<g>
		<path class="st0" d="M200.3,0h33.6v8.6h-14.3v39.9h-9.9V8.6h-14.3V5.2C195.3,2.4,197.5,0,200.3,0z"/>
		<path class="st0" d="M243.5,0h5.1v18.1h19.9V0h10.1v48.5h-10.1V27h-19.9v21.5h-10.1V5.2C238.5,2.4,240.7,0,243.5,0z"/>
		<path class="st0" d="M283.3,5.2c0-3.4,1.6-5.1,5-5.2h30.1v8.4h-25.3v10.4H312v3.2c0.1,3.4-1.6,5-5.1,5h-13.8v12.5h25.3v8.9h-35.1
			V5.2z"/>
	</g>
	<g>
		<path class="st0" d="M200.3,56.8h5.1v18.1h19.9V56.8h10.1v48.5h-10.1V83.8h-19.9v21.5h-10.1V62C195.3,59.2,197.5,56.8,200.3,56.8z
			"/>
		<path class="st0" d="M240.2,62c0-3.4,1.6-5.1,5-5.2h30.1v8.4H250v10.4h18.9v3.2c0.1,3.4-1.6,5-5.1,5H250v12.5h25.3v8.9h-35.1
			L240.2,62L240.2,62z"/>
		<path class="st0" d="M280.1,62c0-3.4,1.6-5.2,5-5.2h4.9v48.5h-9.9V62z"/>
		<path class="st0" d="M317.1,56c5.6,0,10.6,1.4,14.6,4.3c3.7,3,5.8,7.2,6.1,12.7h-6.1c-1.8,0-3.2-0.9-4.4-2.5
			c-1.9-3.9-5.3-5.8-10-5.8c-8.3,0-12.6,5.3-12.7,15.9c-0.1,10.6,4.3,16.3,13.2,17c6.7,0,10.6-4.5,11.7-10.3h-5.8c-2.8,0-5-2.2-5-5
			v-3.1h19.7v26.2H336c-2.4,0-4.6-1.6-4.8-3.8l-0.4-2.4c-3.4,4.4-6.9,6.8-13.9,6.8c-13.9,0-22.3-10.8-22.3-25
			C294.3,66.7,302.8,55.5,317.1,56z"/>
		<path class="st0" d="M348.2,56.8h5.1v18.1h19.9V56.8h10.1v48.5h-10.1V83.8h-19.9v21.5h-10.1V62C343.2,59.2,345.4,56.8,348.2,56.8z
			"/>
		<path class="st0" d="M392.8,56.8h33.6v8.6H412v39.9h-9.9V65.4h-14.3V62C387.8,59.2,390,56.8,392.8,56.8z"/>
		<path class="st0" d="M460.6,91.8c0-2.4-1.4-3.9-4.4-4.8c-2.9-0.9-6.1-1.7-9.6-2.6c-9.5-2.4-14.2-6.8-14.2-13.3
			c0.2-10.2,6.3-15.2,18.3-15.1c11.4,0,17.3,5,17.9,15h-5.6c-2.1,0-3.5-1-4.4-2.9c-1.6-2.8-4.6-4.1-8.8-4.1c-5.1,0.1-7.7,2-7.9,5.7
			c0,3.1,3.1,5.3,9.4,6.7c3.6,0.9,7.5,1.9,11.5,3.4c5.4,1.9,8,5.8,7.7,12c-0.6,9.5-7,14.2-19.2,14.2c-12.8,0-19.3-5.3-19.6-15.9h9.6
			c0.4,5.1,3.6,7.7,10,7.7C457.6,97.8,460.7,95.8,460.6,91.8z"/>
	</g>
	<g>
		<path class="st0" d="M218.7,141.8H205v21.5h-9.7V120c0-2.8,2.2-5.2,5-5.2h29.9v8.4H205v10.4h18.8v3.2
			C223.8,139.6,221.4,141.8,218.7,141.8z"/>
		<path class="st0" d="M234.6,120c0-3.3,1.6-5.1,5-5.2h29.9v8.4h-25.1v10.4h18.8v3.2c0.1,3.3-1.6,5-5.1,5h-13.7v12.5h25.1v8.9h-34.8
			L234.6,120L234.6,120z"/>
		<path class="st0" d="M279.2,114.8h4.9v39.6h23.5v8.9h-33.3V120C274.3,117.2,276.5,114.8,279.2,114.8z"/>
		<path class="st0" d="M316.6,114.8h4.9v39.6H345v8.9h-33.3V120C311.7,117.2,313.9,114.8,316.6,114.8z"/>
		<path class="st0" d="M348.7,139.1c0-14.8,8.7-25,23-25c14.4,0,23.1,10.3,23.1,25c0,14.9-8.4,25-23.1,25
			C357,164,348.7,153.9,348.7,139.1z M358.5,139.1c0,9.5,4.2,16.6,13.2,16.6s13.2-6.8,13.2-16.6c0-9.6-4.2-16.4-13.2-16.4
			S358.5,129.7,358.5,139.1z"/>
		<path class="st0" d="M457.2,114.8l-13.7,48.5h-9.4l-7.4-37.1l-7.5,37.1h-9.5L396,114.8h10.3l8.1,34.1l7.1-34.1h10.5l6.9,34.1
			l7.3-30.4c0.8-2.5,2.5-3.8,5-3.8C451.1,114.8,457.2,114.8,457.2,114.8z"/>
		<path class="st0" d="M489.5,149.8c0-2.4-1.4-3.9-4.4-4.8c-2.8-0.9-6.1-1.7-9.5-2.6c-9.4-2.4-14.1-6.8-14.1-13.3
			c0.2-10.2,6.2-15.2,18.1-15.1c11.3,0,17.2,5,17.8,15h-5.5c-2.1,0-3.5-1-4.4-2.9c-1.6-2.8-4.5-4.1-8.7-4.1c-5.1,0.1-7.6,2-7.9,5.7
			c0,3.1,3,5.3,9.3,6.7c3.6,0.9,7.4,1.9,11.5,3.4c5.4,1.9,7.9,5.8,7.6,12c-0.6,9.5-6.9,14.2-19.1,14.2c-12.7,0-19.2-5.3-19.5-15.9
			h9.6c0.4,5.1,3.6,7.7,9.9,7.7C486.6,155.8,489.6,153.8,489.5,149.8z"/>
		<path class="st0" d="M509.1,114.8h5v18.1h19.7v-18.1h10v48.5h-10v-21.5h-19.7v21.5h-10V120C504.2,117.2,506.4,114.8,509.1,114.8z"
			/>
		<path class="st0" d="M548.4,120c0-3.4,1.6-5.2,5-5.2h4.9v48.5h-9.8V120z"/>
		<path class="st0" d="M585.1,146.1h-12.2v17.3h-9.8V120c0-2.8,2.2-5.2,5-5.2h16.3c10.2,0,15.5,5.5,15.5,15.6
			C599.9,140,594.7,146.1,585.1,146.1z M582.6,137.3c5,0.1,7.4-2.3,7.4-7c0-4.7-2.3-7.1-6.9-7.1h-10v14H582.6z"/>
	</g>
</g>
</svg>
