<?xml version="1.0" encoding="utf-8"?>
<!-- Generator: Adobe Illustrator 22.0.1, SVG Export Plug-In . SVG Version: 6.00 Build 0)  -->
<svg version="1.1" id="Layer_1" xmlns="http://www.w3.org/2000/svg" xmlns:xlink="http://www.w3.org/1999/xlink" x="0px" y="0px"
	 width="404.6px" height="164px" viewBox="0 0 404.6 164" style="enable-background:new 0 0 404.6 164;" xml:space="preserve">
<style type="text/css">
	.st0{fill:#33ADE3;}
</style>
<g>
	<path class="st0" d="M5,0h33.6v8.6H24.3v39.9h-9.9V8.6H0V5.2C0,2.4,2.2,0,5,0z"/>
	<path class="st0" d="M48.1,0h5.1v18.1h19.9V0h10.1v48.5H73.1V27H53.2v21.5H43.2V5.2C43.2,2.4,45.4,0,48.1,0z"/>
	<path class="st0" d="M88,5.2c0-3.4,1.6-5.1,5-5.2h30.1v8.4H97.8v10.4h18.9V22c0.1,3.4-1.6,5-5.1,5H97.8v12.5h25.3v8.9H88V5.2z"/>
</g>
<g>
	<path class="st0" d="M5,56.8h5.1v18.1H30V56.8H40v48.5H30V83.8H10.1v21.5H0V62C0,59.2,2.2,56.8,5,56.8z"/>
	<path class="st0" d="M44.9,62c0-3.4,1.6-5.1,5-5.2h30.1v8.4H54.6v10.4h18.9v3.2c0.1,3.4-1.6,5-5.1,5H54.6v12.5h25.3v8.9H44.9
		L44.9,62L44.9,62z"/>
	<path class="st0" d="M84.8,62c0-3.4,1.6-5.2,5-5.2h4.9v48.5h-9.9V62z"/>
	<path class="st0" d="M121.8,56c5.6,0,10.6,1.4,14.6,4.3c3.7,3,5.8,7.2,6.1,12.7h-6.1c-1.8,0-3.2-0.9-4.4-2.5
		c-1.9-3.9-5.3-5.8-10-5.8c-8.3,0-12.6,5.3-12.7,15.9c-0.1,10.6,4.3,16.3,13.2,17c6.7,0,10.6-4.5,11.7-10.3h-5.8c-2.8,0-5-2.2-5-5
		v-3.1h19.7v26.2h-2.5c-2.4,0-4.6-1.6-4.8-3.8l-0.4-2.4c-3.4,4.4-6.9,6.8-13.9,6.8c-13.9,0-22.3-10.8-22.3-25
		C99,66.7,107.5,55.4,121.8,56z"/>
	<path class="st0" d="M152.9,56.8h5.1v18.1h19.9V56.8h10.1v48.5h-10.1V83.8H158v21.5h-10.1V62C147.9,59.2,150.1,56.8,152.9,56.8z"/>
	<path class="st0" d="M197.5,56.8H231v8.6h-14.3v39.9h-9.9V65.4h-14.3V62C192.5,59.2,194.7,56.8,197.5,56.8z"/>
	<path class="st0" d="M265.3,91.8c0-2.4-1.4-3.9-4.4-4.8c-2.9-0.9-6.1-1.7-9.6-2.6c-9.5-2.4-14.2-6.8-14.2-13.3
		c0.2-10.2,6.3-15.2,18.3-15.1c11.4,0,17.3,5,17.9,15h-5.6c-2.1,0-3.5-1-4.4-2.9c-1.6-2.8-4.6-4.1-8.8-4.1c-5.1,0.1-7.7,2-7.9,5.7
		c0,3.1,3.1,5.3,9.4,6.7c3.6,0.9,7.5,1.9,11.5,3.4c5.4,1.9,8,5.8,7.7,12c-0.6,9.5-7,14.2-19.2,14.2c-12.8,0-19.3-5.3-19.6-15.9h9.6
		c0.4,5.1,3.6,7.7,10,7.7C262.3,97.8,265.3,95.8,265.3,91.8z"/>
</g>
<g>
	<path class="st0" d="M23.3,141.8H9.7v21.5H0V120c0-2.8,2.2-5.2,5-5.2h29.9v8.4H9.7v10.4h18.8v3.2C28.5,139.6,26.1,141.8,23.3,141.8
		z"/>
	<path class="st0" d="M39.3,120c0-3.3,1.6-5.1,5-5.2h29.9v8.4H49v10.4h18.8v3.2c0.1,3.3-1.6,5-5.1,5H49v12.5h25.1v8.9H39.3L39.3,120
		L39.3,120z"/>
	<path class="st0" d="M83.9,114.8h4.9v39.6h23.5v8.9H78.9V120C78.9,117.2,81.1,114.8,83.9,114.8z"/>
	<path class="st0" d="M121.3,114.8h4.9v39.6h23.5v8.9h-33.3V120C116.4,117.2,118.6,114.8,121.3,114.8z"/>
	<path class="st0" d="M153.4,139c0-14.8,8.7-25,23-25c14.4,0,23.1,10.3,23.1,25c0,14.9-8.4,25-23.1,25
		C161.7,164,153.4,153.9,153.4,139z M163.2,139c0,9.5,4.2,16.6,13.2,16.6s13.2-6.8,13.2-16.6c0-9.6-4.2-16.4-13.2-16.4
		S163.2,129.6,163.2,139z"/>
	<path class="st0" d="M261.9,114.8l-13.7,48.5h-9.4l-7.4-37.1l-7.5,37.1h-9.5l-13.7-48.5h10.3l8.1,34.1l7.1-34.1h10.5l6.9,34.1
		l7.3-30.4c0.8-2.5,2.5-3.8,5-3.8C255.8,114.8,261.9,114.8,261.9,114.8z"/>
	<path class="st0" d="M294.2,149.8c0-2.4-1.4-3.9-4.4-4.8c-2.8-0.9-6.1-1.7-9.5-2.6c-9.4-2.4-14.1-6.8-14.1-13.3
		c0.2-10.2,6.2-15.2,18.1-15.1c11.3,0,17.2,5,17.8,15h-5.5c-2.1,0-3.5-1-4.4-2.9c-1.6-2.8-4.5-4.1-8.7-4.1c-5.1,0.1-7.6,2-7.9,5.7
		c0,3.1,3,5.3,9.3,6.7c3.6,0.9,7.4,1.9,11.5,3.4c5.4,1.9,7.9,5.8,7.6,12c-0.6,9.5-6.9,14.2-19.1,14.2c-12.7,0-19.2-5.3-19.5-15.9
		h9.6c0.4,5.1,3.6,7.7,9.9,7.7C291.2,155.8,294.3,153.8,294.2,149.8z"/>
	<path class="st0" d="M313.8,114.8h5v18.1h19.7v-18.1h10v48.5h-10v-21.5h-19.7v21.5h-10V120C308.8,117.2,311,114.8,313.8,114.8z"/>
	<path class="st0" d="M353.1,120c0-3.4,1.6-5.2,5-5.2h4.9v48.5h-9.8V120z"/>
	<path class="st0" d="M389.8,146h-12.2v17.3h-9.8V120c0-2.8,2.2-5.2,5-5.2h16.3c10.2,0,15.5,5.5,15.5,15.6
		C404.6,140,399.4,146,389.8,146z M387.3,137.3c5,0.1,7.4-2.3,7.4-7c0-4.7-2.3-7.1-6.9-7.1h-10v14H387.3z"/>
</g>
</svg>
