<?xml version="1.0" standalone="no"?>
<!DOCTYPE svg PUBLIC "-//W3C//DTD SVG 20010904//EN"
 "http://www.w3.org/TR/2001/REC-SVG-20010904/DTD/svg10.dtd">
<svg version="1.0" xmlns="http://www.w3.org/2000/svg"
 width="800.000000pt" height="800.000000pt" viewBox="0 0 800.000000 800.000000"
 preserveAspectRatio="xMidYMid meet">
<metadata>
Created by potrace 1.11, written by Peter Selinger 2001-2013
</metadata>
<g transform="translate(0.000000,800.000000) scale(0.100000,-0.100000)"
fill="#000000" stroke="none">
<path d="M859 7666 c-2 -2 -29 -6 -59 -10 -165 -16 -312 -66 -441 -149 -58
-37 -178 -159 -203 -205 -56 -106 -75 -144 -75 -150 -1 -4 -9 -29 -18 -57 -9
-27 -18 -59 -19 -70 -2 -11 -8 -40 -14 -64 -6 -24 -14 -58 -17 -75 -9 -45 -15
-4186 -6 -4186 4 0 24 17 44 38 44 46 124 112 137 112 5 0 21 17 35 38 15 20
43 52 64 69 21 18 51 43 67 57 16 14 37 28 47 31 11 4 18 12 17 19 -3 14 49
62 107 96 72 44 82 54 200 205 52 66 120 152 150 190 31 39 62 77 68 86 15 19
43 75 56 110 5 14 73 121 150 237 78 116 141 216 141 222 0 5 5 10 10 10 6 0
10 4 10 9 0 5 26 46 58 91 31 45 64 93 72 108 8 15 20 31 26 37 6 5 39 48 74
95 35 47 75 98 89 114 47 52 207 210 237 234 16 12 43 33 59 45 17 13 48 35
69 50 l39 26 50 -19 c28 -11 54 -17 59 -14 4 3 8 1 8 -4 0 -5 6 -9 13 -9 17
-1 189 -53 208 -63 14 -8 45 -111 54 -185 29 -222 29 -222 174 -503 24 -45 45
-97 47 -115 9 -64 26 -142 35 -159 5 -10 16 -15 24 -12 20 8 89 127 118 204
38 100 40 104 42 116 5 22 39 90 72 142 18 29 33 55 33 58 0 6 51 75 61 84 3
3 11 15 18 27 11 22 109 154 121 163 3 3 13 15 21 26 8 12 35 45 61 75 25 30
88 104 140 164 109 129 147 172 171 197 9 10 17 20 17 23 0 2 16 21 35 41 53
54 105 120 105 132 0 6 3 12 8 14 9 4 62 74 62 83 0 6 108 162 125 181 5 6 24
29 40 50 17 21 53 65 81 99 27 33 86 107 129 165 44 58 92 119 107 135 15 17
47 52 70 79 67 76 92 103 214 227 63 64 114 124 114 133 0 12 10 16 43 17 117
2 194 -3 212 -15 11 -6 38 -13 60 -15 49 -3 76 -19 95 -57 39 -77 347 -592
368 -616 8 -10 11 -18 7 -18 -4 0 -1 -8 7 -17 8 -10 70 -110 138 -223 68 -113
127 -206 132 -208 4 -2 8 -10 8 -17 0 -8 6 -20 13 -27 23 -25 57 -77 57 -88 0
-5 4 -10 8 -10 5 0 15 -12 23 -27 8 -16 16 -30 19 -33 14 -14 108 -199 115
-225 16 -70 134 -273 227 -390 9 -11 294 -443 343 -520 30 -48 74 -118 158
-255 22 -36 55 -87 72 -115 18 -27 38 -61 45 -75 7 -14 21 -34 31 -45 10 -11
19 -24 20 -30 2 -11 15 -32 147 -240 53 -82 98 -152 102 -155 3 -3 11 -17 19
-32 8 -16 18 -28 23 -28 4 0 8 -6 8 -13 0 -7 13 -28 30 -47 16 -19 29 -38 30
-42 0 -5 49 -74 108 -155 59 -82 123 -173 142 -203 19 -30 38 -59 43 -65 7 -9
132 -182 172 -240 8 -11 51 -69 95 -129 44 -59 80 -111 80 -115 0 -4 8 -14 18
-22 9 -9 24 -26 32 -39 14 -21 67 -90 76 -99 2 -2 4 1288 4 2867 l0 2872
-3568 0 c-1963 0 -3571 -2 -3573 -4z"/>
<path d="M4839 5953 c-106 -91 -263 -246 -394 -388 -49 -54 -97 -106 -105
-114 -8 -9 -40 -46 -70 -81 -30 -36 -57 -67 -60 -70 -5 -4 -58 -69 -110 -133
-8 -10 -23 -28 -34 -40 -10 -12 -39 -49 -65 -82 -25 -33 -53 -67 -61 -75 -8
-9 -24 -29 -35 -44 -11 -16 -32 -42 -47 -60 -27 -32 -138 -174 -173 -221 -11
-15 -68 -93 -127 -174 -59 -80 -112 -151 -116 -156 -5 -6 -17 -24 -27 -40 -11
-17 -25 -37 -33 -45 -26 -29 -122 -170 -122 -180 0 -6 -3 -10 -7 -10 -5 0 -21
-21 -38 -48 -16 -26 -38 -56 -47 -66 -10 -11 -18 -26 -18 -33 0 -7 -3 -13 -8
-13 -4 0 -16 -16 -26 -35 -11 -19 -23 -35 -28 -35 -4 0 -8 -4 -8 -9 0 -6 -14
-30 -31 -55 -69 -103 -160 -256 -195 -326 -20 -41 -47 -89 -60 -107 -26 -35
-23 -35 -159 7 -68 20 -85 25 -123 34 -9 2 -54 16 -99 31 -79 24 -83 27 -84
55 -1 30 -4 48 -9 53 -1 1 -3 14 -4 28 -2 14 -6 35 -11 45 -4 10 -10 28 -12
38 -6 32 -49 146 -81 216 -16 36 -40 88 -52 115 -13 28 -38 82 -57 120 -19 39
-43 90 -53 115 -10 25 -26 62 -35 83 l-16 38 -60 -63 c-33 -35 -79 -85 -102
-111 -23 -27 -54 -61 -68 -75 -14 -15 -56 -67 -93 -117 -65 -86 -145 -169
-155 -160 -2 3 8 23 23 45 23 35 24 40 9 40 -56 0 -107 -66 -117 -150 -6 -48
-30 -75 -78 -85 -16 -4 -34 -15 -40 -24 -7 -10 -23 -23 -35 -30 -13 -6 -23
-19 -23 -27 0 -27 -37 -88 -76 -128 -7 -6 -37 -35 -67 -64 -32 -30 -58 -66
-62 -82 -3 -16 -24 -54 -45 -84 -22 -31 -54 -83 -71 -115 -23 -43 -43 -65 -73
-82 -46 -26 -58 -38 -87 -92 -24 -46 -47 -57 -65 -32 -13 17 -18 14 -78 -47
-35 -35 -80 -73 -101 -82 -40 -19 -100 -75 -179 -169 -96 -113 -232 -233 -316
-277 -14 -7 -28 -18 -32 -24 -4 -6 -8 -437 -8 -958 l0 -948 33 -1 c387 -13
1728 -19 4985 -24 l2982 -5 0 625 0 625 -26 23 c-14 12 -60 57 -102 99 -41 43
-93 90 -115 105 -62 43 -143 126 -184 189 -81 124 -162 223 -273 334 -63 64
-142 149 -175 190 -32 41 -63 77 -67 78 -4 2 -8 8 -8 13 0 6 -12 22 -26 37
-14 15 -33 39 -42 55 -9 15 -20 27 -24 27 -4 0 -8 6 -8 14 0 8 -3 16 -7 18 -5
2 -36 41 -70 88 -34 47 -66 90 -71 95 -4 6 -17 25 -27 43 -11 17 -23 32 -27
32 -4 0 -8 4 -8 9 0 4 -43 71 -95 149 -52 77 -95 145 -95 151 0 5 -3 11 -7 13
-14 6 -153 222 -153 237 0 5 -4 11 -8 13 -5 2 -28 35 -51 73 -23 39 -71 115
-106 170 -36 55 -69 109 -75 120 -5 11 -32 54 -60 95 -27 41 -57 89 -66 107
-9 18 -22 37 -30 44 -8 6 -14 17 -14 24 0 8 -3 15 -7 17 -5 2 -33 41 -63 88
-52 81 -63 96 -102 141 -9 11 -22 43 -29 71 -10 45 -53 143 -69 158 -23 23
-79 117 -119 202 -26 57 -75 142 -109 189 -68 97 -111 164 -144 227 -12 23
-26 42 -30 42 -4 0 -8 6 -8 13 0 15 -114 199 -181 290 -27 37 -49 78 -49 90 0
13 -8 32 -18 43 -9 10 -40 51 -69 89 -28 39 -62 80 -75 93 l-24 22 -45 -37z"/>
</g>
</svg>
